Coordinates
version=1
nRows=22
nColumns=24
inDegrees=yes

Units are S.I. units (second, meters, Newtons, ...)
Angles are in degrees.

endheader
time	pelvis_tilt	pelvis_list	pelvis_rotation	pelvis_tx	pelvis_ty	pelvis_tz	hip_flexion_r	hip_adduction_r	hip_rotation_r	knee_angle_r	ankle_angle_r	subtalar_angle_r	mtp_angle_r	hip_flexion_l	hip_adduction_l	hip_rotation_l	knee_angle_l	ankle_angle_l	subtalar_angle_l	mtp_angle_l	lumbar_extension	lumbar_bending	lumbar_rotation
      1.45000000	     13.78646365	     -8.27304520	      1.73801486	     -0.19033438	      0.96005547	     -0.03735038	      4.60764255	      7.44424788	    -14.33850587	    -23.35121233	     13.70071366	    -20.51272784	     22.21235097	    -20.91819792	     -5.48308957	     -9.73930372	     -9.47313782	     25.76754217	     -4.88011672	     10.97044705	    -21.72939111	      8.53356139	      2.84904412
      1.45500000	     14.07402142	     -8.48815357	      2.13746625	     -0.18411813	      0.95967823	     -0.03737553	      3.88279445	      7.80491613	    -15.23962915	    -20.64511391	     13.26827445	    -19.88025811	     22.59303771	    -21.59690731	     -5.87829591	     -9.75258483	     -9.47807891	     26.07641690	     -4.53990875	     10.81972563	    -21.92735438	      8.89199538	      2.63332509
      1.46000000	     14.33405565	     -8.64967968	      2.52814227	     -0.17788232	      0.95917393	     -0.03734104	      3.18924738	      8.13319888	    -16.17603523	    -17.96205158	     12.80906955	    -19.07822380	     23.05888683	    -22.24013921	     -6.22604366	     -9.76111591	     -9.49240690	     26.39319942	     -4.21021580	     10.68276510	    -22.08959487	      9.18785376	      2.39280515
      1.46500000	     14.56271077	     -8.76179913	      2.89946346	     -0.17162095	      0.95855494	     -0.03722069	      2.52950446	      8.43760146	    -17.12938087	    -15.30589676	     12.31969551	    -18.11462363	     23.63318784	    -22.84702728	     -6.52748974	     -9.77658954	     -9.51625703	     26.70271295	     -3.88694693	     10.55620324	    -22.21453395	      9.42105088	      2.14577295
      1.47000000	     14.75313769	     -8.81653995	      3.24056885	     -0.16537681	      0.95780052	     -0.03704680	      1.93141523	      8.69960680	    -18.07898653	    -12.73026310	     11.81010217	    -16.99008047	     24.34355838	    -23.40579496	     -6.76531564	     -9.78420014	     -9.55731780	     27.04175551	     -3.57338878	     10.43916433	    -22.30196929	      9.58658892	      1.90110615
      1.47500000	     14.86695359	     -8.80118149	      3.56142352	     -0.15916800	      0.95688936	     -0.03677920	      1.45165501	      8.90308371	    -19.04360386	    -10.27678421	     11.32428582	    -15.76220340	     25.05674066	    -23.85888795	     -6.93808310	     -9.75473468	     -9.63954921	     27.30465972	     -3.27048286	     10.35170947	    -22.31039269	      9.66385230	      1.64874606
      1.48000000	     14.84719915	     -8.71817446	      3.81440060	     -0.15305457	      0.95574072	     -0.03640848	      1.18685385	      9.02523895	    -19.96774745	     -8.01787123	     10.70818785	    -14.53645405	     27.42624130	    -24.14344071	     -7.01887246	     -9.67904078	     -9.77581315	     27.65080572	     -3.04724053	     10.02576127	    -22.19278018	      9.64621404	      1.38764364
      1.48500000	     14.86604585	     -8.62150213	      4.01493637	     -0.14694591	      0.95460442	     -0.03589284	      0.90171497	      9.15762759	    -20.77145977	     -5.88611386	     10.28951695	    -13.15206291	     27.69097656	    -24.49147392	     -7.07546983	     -9.69763015	     -9.88970137	     27.91479911	     -2.78846798	     10.06679543	    -22.12928208	      9.59001785	      1.20318493
      1.49000000	     14.78488111	     -8.46173587	      4.19128491	     -0.14095877	      0.95330649	     -0.03533157	      0.80140178	      9.20275564	    -21.59008911	     -3.98095290	      9.91468477	    -11.68327752	     28.02208230	    -24.68953036	     -7.06445741	     -9.65096562	    -10.07693512	     28.20626607	     -2.56580275	     10.11556037	    -21.97582543	      9.45670848	      0.97512245
      1.49500000	     14.65907527	     -8.30040471	      4.29781746	     -0.13498164	      0.95195063	     -0.03468367	      0.79503559	      9.23012119	    -22.32659014	     -2.26372711	      9.64707609	    -10.06792221	     28.51367378	    -24.85775794	     -7.02067961	     -9.61796253	    -10.24824380	     28.42462060	     -2.41189071	     10.16242745	    -21.78664486	      9.30158253	      0.85708462
      1.50000000	     14.49381927	     -8.11249437	      4.39769466	     -0.12908659	      0.95053381	     -0.03396871	      0.86614630	      9.22640084	    -22.97905607	     -0.68976507	      9.35291613	     -8.60729800	     28.97170417	    -24.95022552	     -6.95792309	     -9.56621709	    -10.47942829	     28.67761815	     -2.23342393	     10.23523845	    -21.56673426	      9.10839162	      0.70415843
      1.50500000	     14.29028907	     -7.91464122	      4.47908551	     -0.12324402	      0.94907909	     -0.03321829	      1.01385894	      9.19655665	    -23.53999533	      0.72172716	      9.06393519	     -7.24570165	     29.37686686	    -24.98661465	     -6.88003179	     -9.50490460	    -10.73960086	     28.94536762	     -2.08085610	     10.32745382	    -21.31797997	      8.90001972	      0.54753816
      1.51000000	     14.09353462	     -7.73428170	      4.53252637	     -0.11737181	      0.94765151	     -0.03244359	      1.17168295	      9.17200819	    -24.02430948	      1.98996029	      8.82646273	     -5.90046525	     29.81913470	    -25.04310692	     -6.80786126	     -9.45687459	    -10.98981900	     29.12561637	     -1.95212966	     10.44061046	    -21.07770248	      8.70628638	      0.46173981
      1.51500000	     13.83058377	     -7.58082018	      4.59661654	     -0.11151971	      0.94615793	     -0.03162639	      1.40666141	      9.16681175	    -24.33968141	      3.15567867	      8.53161632	     -4.89475579	     30.05720350	    -24.99646707	     -6.77604895	     -9.39190055	    -11.29608864	     29.35152573	     -1.82456108	     10.54863216	    -20.76622110	      8.53843100	      0.34089442
      1.52000000	     13.62519049	     -7.40826444	      4.65505512	     -0.10565633	      0.94476532	     -0.03084048	      1.61000278	      9.11668521	    -24.69161942	      4.12864662	      8.37980921	     -3.71230953	     30.37099789	    -25.02221531	     -6.72238200	     -9.32842267	    -11.58948048	     29.52610185	     -1.66636703	     10.69658332	    -20.52246678	      8.35589201	      0.24542377
      1.52500000	     13.44584609	     -7.24808581	      4.72678619	     -0.09978016	      0.94344194	     -0.03008710	      1.78532660	      9.06685707	    -24.94893569	      4.98649561	      8.22437525	     -2.71846184	     30.67359064	    -25.07592099	     -6.68583830	     -9.23059751	    -11.87958154	     29.67998160	     -1.54970420	     10.88332175	    -20.30720544	      8.19653830	      0.13747398
      1.53000000	     13.28495869	     -7.09621132	      4.79518618	     -0.09386647	      0.94219054	     -0.02933936	      1.95098236	      9.00660578	    -25.13845434	      5.69374798	      8.10138530	     -1.82191126	     31.01384767	    -25.15337298	     -6.65710062	     -9.12910146	    -12.16755606	     29.80395591	     -1.44939657	     11.15615336	    -20.10961124	      8.04817739	      0.04683060
      1.53500000	     13.14887573	     -6.97896702	      4.88589260	     -0.08789839	      0.94102142	     -0.02863663	      2.08956505	      8.96688781	    -25.27571089	      6.27805670	      7.98310987	     -1.04537528	     31.39674071	    -25.25587026	     -6.67657992	     -9.01526157	    -12.45702391	     29.84390196	     -1.33891985	     11.55665628	    -19.93284934	      7.94965503	     -0.02968059
      1.54000000	     13.01708863	     -6.90630467	      5.02160932	     -0.08187471	      0.93988875	     -0.02798295	      2.20363808	      8.96359919	    -25.26071491	      6.78300001	      7.80900183	     -0.65531715	     31.50867856	    -25.34107310	     -6.76568410	     -8.85475790	    -12.78510220	     29.91227873	     -1.20895253	     11.73619998	    -19.74812015	      7.91557240	     -0.15468433
      1.54500000	     12.93858405	     -6.83777600	      5.15045917	     -0.07573758	      0.93890010	     -0.02739381	      2.29262164	      8.93873498	    -25.39863522	      7.07780025	      7.78841991	      0.07866661	     31.92565520	    -25.51430980	     -6.85164857	     -8.72842125	    -13.06095451	     29.88007316	     -1.11756827	     12.38054343	    -19.61281749	      7.89691560	     -0.26129695
      1.55000000	     12.87817467	     -6.80475555	      5.34554355	     -0.06959265	      0.93796521	     -0.02686712	      2.32973317	      8.94632450	    -25.32838795	      7.32996683	      7.64844154	      0.24160869	     32.00421881	    -25.66248864	     -7.01105371	     -8.50923290	    -13.40775095	     29.91288455	     -0.98532796	     12.57954046	    -19.48722645	      7.93663899	     -0.40612565
      1.55500000	     12.87297815	     -6.81008745	      5.57079309	     -0.06335268	      0.93715926	     -0.02641462	      2.32457582	      8.97847108	    -25.33219442	      7.42335366	      7.55399747	      0.49413426	     32.17755199	    -25.87147279	     -7.22717631	     -8.29714705	    -13.75003081	     29.88621621	     -0.81426139	     12.96807849	    -19.40984025	      8.03688062	     -0.56980211
